<svg xmlns="http://www.w3.org/2000/svg" viewBox="0 0 200 220" width="200" height="220" role="img" aria-label="Cash Pass">
<defs>
<radialGradient id="pool-s" cx="0.5" cy="0.5" r="0.5"><stop offset="0" stop-color="#E9F1F8" stop-opacity="0.35"/><stop offset="1" stop-color="#E9F1F8" stop-opacity="0"/></radialGradient>
<linearGradient id="fade-s" x1="0" y1="41" x2="0" y2="51" gradientUnits="userSpaceOnUse"><stop offset="0" stop-color="#fff" stop-opacity="0.25"/><stop offset="1" stop-color="#fff" stop-opacity="0"/></linearGradient>
<mask id="mask-s" maskUnits="userSpaceOnUse" x="0" y="40" width="64" height="16"><rect x="0" y="40" width="64" height="16" fill="url(#fade-s)"/></mask>
</defs>
<g transform="translate(36 22) scale(2)"><ellipse id="pool" cx="32" cy="40" rx="28" ry="7" fill="url(#pool-s)"/>
<g id="reflection" mask="url(#mask-s)"><g transform="matrix(1 0 0 -1 0 80)"><rect x="12" y="14" width="40" height="25" rx="3" fill="#E9F1F8"/><rect x="17" y="33" width="9" height="2" fill="#2E0B0C"/></g></g>
<g id="card"><rect id="card-face" x="12" y="14" width="40" height="25" rx="3" fill="#E9F1F8"/><rect id="digits" x="17" y="33" width="9" height="2" fill="#2E0B0C"/></g></g>
<path id="wordmark" transform="translate(14 190)" d="M12.4 0.5Q7 0.5 4 -3Q1 -6.4 1 -12.5Q1 -18.6 3.9 -22Q6.9 -25.5 12.4 -25.5Q15.7 -25.5 18 -24.3Q20.4 -23 21.7 -20.9Q23 -18.7 23.2 -15.8H17.9Q17.6 -18.5 16.2 -20Q14.7 -21.5 12.4 -21.5Q9.5 -21.5 8 -19.1Q6.5 -16.8 6.5 -12.5Q6.5 -8 8.1 -5.8Q9.6 -3.6 12.4 -3.6Q14.8 -3.6 16.2 -5.1Q17.6 -6.6 17.9 -9.2H23.2Q23 -6.4 21.7 -4.2Q20.4 -2 18 -0.8Q15.7 0.5 12.4 0.5Z M32.6 0.4Q29.9 0.4 28.2 -0.9Q26.4 -2.2 25.6 -4.5Q24.8 -6.8 24.8 -9.7Q24.8 -12.6 25.6 -14.9Q26.5 -17.1 28.2 -18.4Q29.9 -19.6 32.6 -19.6Q34.6 -19.6 35.9 -18.8Q37.2 -18.1 37.9 -16.7H38.6V-19.2H43.4V0H38.6V-2.5H37.9Q37.2 -1.3 35.9 -0.4Q34.6 0.4 32.6 0.4ZM33.9 -3.3Q35.9 -3.3 37.1 -5Q38.2 -6.7 38.2 -9.6Q38.2 -12.6 37.1 -14.3Q35.9 -16 33.9 -16Q32.2 -16 31.2 -14.4Q30.2 -12.8 30.2 -9.6Q30.2 -6.4 31.2 -4.9Q32.2 -3.3 33.9 -3.3Z M55 0.5Q51.8 0.5 49.9 -0.5Q48 -1.5 47.1 -3.1Q46.2 -4.6 46.1 -6.2H51Q51.2 -5.3 51.7 -4.6Q52.2 -3.9 53.1 -3.6Q54 -3.2 55.2 -3.2Q56.8 -3.2 57.5 -3.7Q58.1 -4.2 58.1 -5.1Q58.1 -5.8 57.5 -6.4Q56.9 -6.9 55.5 -7.3L53.2 -8.1Q51.5 -8.7 50.1 -9.4Q48.7 -10.1 47.8 -11.2Q47 -12.3 47 -14Q47 -16.6 48.9 -18.1Q50.9 -19.7 54.5 -19.7Q57.1 -19.7 58.7 -18.9Q60.4 -18.1 61.2 -16.8Q62 -15.5 62.2 -13.9H57.4Q57.3 -15 56.5 -15.6Q55.7 -16.3 54.3 -16.3Q53 -16.3 52.4 -15.8Q51.8 -15.3 51.8 -14.5Q51.8 -13.6 52.5 -13.1Q53.1 -12.5 54.5 -12.1L56.8 -11.4Q58.5 -10.8 59.9 -10.2Q61.3 -9.5 62.1 -8.4Q62.9 -7.3 62.9 -5.5Q62.9 -2.8 60.9 -1.2Q58.9 0.5 55 0.5Z M65.7 0V-25.7H70.9V-16.9H71.7Q72.3 -18.2 73.5 -18.9Q74.6 -19.7 76.6 -19.7Q79.8 -19.7 81.4 -17.7Q83 -15.7 83 -12.2V0H77.8V-11.4Q77.8 -13.3 77.1 -14.4Q76.4 -15.5 74.8 -15.5Q73 -15.5 71.9 -14Q70.9 -12.6 70.9 -10.4V0Z M94.3 0V-25H104.7Q109.5 -25 111.7 -23Q114 -21 114 -17.5Q114 -14.1 111.8 -12Q109.6 -10 104.7 -10H99.6V0ZM99.6 -14H103.9Q106.1 -14 107.3 -14.8Q108.6 -15.5 108.6 -17.5Q108.6 -19.4 107.3 -20.2Q106.1 -21 103.9 -21H99.6Z M123.3 0.4Q120.6 0.4 118.8 -0.9Q117.1 -2.2 116.3 -4.5Q115.4 -6.8 115.4 -9.7Q115.4 -12.6 116.3 -14.9Q117.1 -17.1 118.9 -18.4Q120.6 -19.6 123.2 -19.6Q125.3 -19.6 126.6 -18.8Q127.9 -18.1 128.5 -16.7H129.3V-19.2H134.1V0H129.3V-2.5H128.5Q127.9 -1.3 126.6 -0.4Q125.3 0.4 123.3 0.4ZM124.6 -3.3Q126.6 -3.3 127.7 -5Q128.9 -6.7 128.9 -9.6Q128.9 -12.6 127.7 -14.3Q126.6 -16 124.6 -16Q122.8 -16 121.8 -14.4Q120.8 -12.8 120.8 -9.6Q120.8 -6.4 121.8 -4.9Q122.8 -3.3 124.6 -3.3Z M145.7 0.5Q142.4 0.5 140.5 -0.5Q138.6 -1.5 137.7 -3.1Q136.9 -4.6 136.7 -6.2H141.7Q141.8 -5.3 142.4 -4.6Q142.9 -3.9 143.8 -3.6Q144.7 -3.2 145.9 -3.2Q147.5 -3.2 148.1 -3.7Q148.8 -4.2 148.8 -5.1Q148.8 -5.8 148.2 -6.4Q147.6 -6.9 146.1 -7.3L143.8 -8.1Q142.2 -8.7 140.7 -9.4Q139.3 -10.1 138.5 -11.2Q137.6 -12.3 137.6 -14Q137.6 -16.6 139.6 -18.1Q141.6 -19.7 145.1 -19.7Q147.7 -19.7 149.4 -18.9Q151 -18.1 151.9 -16.8Q152.7 -15.5 152.8 -13.9H148.1Q147.9 -15 147.1 -15.6Q146.3 -16.3 145 -16.3Q143.7 -16.3 143.1 -15.8Q142.4 -15.3 142.4 -14.5Q142.4 -13.6 143.1 -13.1Q143.8 -12.5 145.2 -12.1L147.5 -11.4Q149.2 -10.8 150.6 -10.2Q151.9 -9.5 152.8 -8.4Q153.6 -7.3 153.6 -5.5Q153.6 -2.8 151.6 -1.2Q149.5 0.5 145.7 0.5Z M163.6 0.5Q160.4 0.5 158.4 -0.5Q156.5 -1.5 155.7 -3.1Q154.8 -4.6 154.6 -6.2H159.6Q159.7 -5.3 160.3 -4.6Q160.8 -3.9 161.7 -3.6Q162.6 -3.2 163.8 -3.2Q165.4 -3.2 166 -3.7Q166.7 -4.2 166.7 -5.1Q166.7 -5.8 166.1 -6.4Q165.5 -6.9 164 -7.3L161.7 -8.1Q160.1 -8.7 158.7 -9.4Q157.2 -10.1 156.4 -11.2Q155.5 -12.3 155.5 -14Q155.5 -16.6 157.5 -18.1Q159.5 -19.7 163 -19.7Q165.6 -19.7 167.3 -18.9Q169 -18.1 169.8 -16.8Q170.6 -15.5 170.7 -13.9H166Q165.8 -15 165 -15.6Q164.2 -16.3 162.9 -16.3Q161.6 -16.3 161 -15.8Q160.4 -15.3 160.4 -14.5Q160.4 -13.6 161 -13.1Q161.7 -12.5 163.1 -12.1L165.4 -11.4Q167.1 -10.8 168.5 -10.2Q169.8 -9.5 170.7 -8.4Q171.5 -7.3 171.5 -5.5Q171.5 -2.8 169.5 -1.2Q167.4 0.5 163.6 0.5Z" fill="#F5EDE8"/>
</svg>
